<svg width="26" height="27" viewBox="0 0 26 27" fill="none" xmlns="http://www.w3.org/2000/svg">
<g filter="url(#filter0_d_3114_651)">
<path d="M15.9165 9.99992C15.9165 11.6108 14.6107 12.9166 12.9999 12.9166C11.389 12.9166 10.0832 11.6108 10.0832 9.99992C10.0832 8.38909 11.389 7.08325 12.9999 7.08325C14.6107 7.08325 15.9165 8.38909 15.9165 9.99992Z" stroke="#080B12" stroke-width="1.25"/>
<path d="M20.509 11.7471C20.9439 11.6298 21.1614 11.5712 21.2473 11.459C21.3332 11.3469 21.3332 11.1665 21.3332 10.8058V9.19435C21.3332 8.8336 21.3332 8.65318 21.2473 8.5411C21.1613 8.42893 20.9439 8.37026 20.509 8.253C18.8837 7.81467 17.8664 6.11544 18.2859 4.50074C18.4013 4.05667 18.4589 3.83465 18.4038 3.70442C18.3488 3.5742 18.1908 3.48446 17.8746 3.30498L16.4373 2.48896C16.1272 2.31284 15.9721 2.22478 15.8329 2.24353C15.6937 2.26228 15.5367 2.41896 15.2225 2.73229C14.0065 3.94541 11.9945 3.94536 10.7785 2.73221C10.4644 2.41887 10.3073 2.26221 10.1681 2.24345C10.0289 2.2247 9.87381 2.31276 9.56361 2.48887L8.12637 3.30491C7.81028 3.48437 7.65223 3.57411 7.59715 3.70431C7.54207 3.83451 7.59973 4.05657 7.71505 4.50068C8.13431 6.11543 7.11627 7.81471 5.49069 8.25301C5.05577 8.37026 4.83831 8.42893 4.7524 8.54101C4.6665 8.65318 4.6665 8.8336 4.6665 9.19435V10.8058C4.6665 11.1665 4.6665 11.3469 4.7524 11.459C4.8383 11.5712 5.05576 11.6298 5.49069 11.7471C7.116 12.1854 8.13324 13.8847 7.71377 15.4993C7.59841 15.9434 7.54073 16.1654 7.5958 16.2957C7.65089 16.4259 7.80894 16.5157 8.12505 16.6951L9.5623 17.5112C9.87251 17.6873 10.0276 17.7753 10.1668 17.7566C10.3061 17.7378 10.4631 17.5811 10.7771 17.2678C11.9938 16.0537 14.0072 16.0536 15.2239 17.2677C15.5379 17.5811 15.6949 17.7378 15.8342 17.7565C15.9733 17.7753 16.1285 17.6872 16.4387 17.5111L17.8759 16.695C18.1921 16.5156 18.3502 16.4258 18.4052 16.2956C18.4603 16.1653 18.4026 15.9433 18.2872 15.4993C17.8675 13.8847 18.8839 12.1855 20.509 11.7471Z" stroke="#080B12" stroke-width="1.25" stroke-linecap="round"/>
</g>
<defs>
<filter id="filter0_d_3114_651" x="-1" y="0" width="28" height="28" filterUnits="userSpaceOnUse" color-interpolation-filters="sRGB">
<feFlood flood-opacity="0" result="BackgroundImageFix"/>
<feColorMatrix in="SourceAlpha" type="matrix" values="0 0 0 0 0 0 0 0 0 0 0 0 0 0 0 0 0 0 127 0" result="hardAlpha"/>
<feOffset dy="4"/>
<feGaussianBlur stdDeviation="2"/>
<feComposite in2="hardAlpha" operator="out"/>
<feColorMatrix type="matrix" values="0 0 0 0 0 0 0 0 0 0 0 0 0 0 0 0 0 0 0.25 0"/>
<feBlend mode="normal" in2="BackgroundImageFix" result="effect1_dropShadow_3114_651"/>
<feBlend mode="normal" in="SourceGraphic" in2="effect1_dropShadow_3114_651" result="shape"/>
</filter>
</defs>
</svg>
