<svg width="28" height="28" viewBox="0 0 28 28" fill="none" xmlns="http://www.w3.org/2000/svg">
<g clip-path="url(#clip0_3114_663)" filter="url(#filter0_d_3114_663)">
<path fill-rule="evenodd" clip-rule="evenodd" d="M13.44 0.672189C12.7639 0.731429 12.3494 0.792109 11.8828 0.900069C9.60786 1.42647 7.59126 2.81111 6.2759 4.74989C5.21062 6.32005 4.66052 8.10789 4.66052 9.99989C4.66052 11.9689 5.25678 13.8257 6.40742 15.4399C7.7175 17.2777 9.70576 18.6026 11.91 19.1064C13.4109 19.4495 15.0523 19.4105 16.52 18.997C18.7279 18.3748 20.609 16.9818 21.8636 15.0399C22.2023 14.5156 22.4457 14.0382 22.6995 13.3999C23.3759 11.6994 23.522 9.72779 23.1065 7.90989C22.637 5.85567 21.4589 3.99197 19.8 2.67891C18.4018 1.57225 16.7721 0.906069 14.98 0.708689C14.706 0.678509 13.6526 0.653549 13.44 0.672189ZM13.8439 5.30123C13.5519 5.35871 13.3107 5.61583 13.2609 5.92265C13.2349 6.08333 13.233 10.2564 13.259 10.4357C13.2948 10.6836 13.4476 10.8919 13.6759 11.0043C13.7983 11.0645 13.8247 11.0699 14 11.0699C14.1752 11.0699 14.2017 11.0645 14.3241 11.0043C14.5524 10.8919 14.7051 10.6836 14.741 10.4357C14.7669 10.2564 14.7651 6.08333 14.739 5.92265C14.6878 5.60721 14.4486 5.35841 14.1401 5.29991C14.0196 5.27707 13.9654 5.27731 13.8439 5.30123ZM13.8595 12.5596C13.6048 12.592 13.3881 12.7084 13.1969 12.9155C12.9555 13.177 12.8655 13.5362 12.9508 13.898C13.0132 14.163 13.213 14.4276 13.4614 14.5745C13.5927 14.6521 13.8437 14.7199 14 14.7199C14.1563 14.7199 14.4073 14.6521 14.5386 14.5745C14.787 14.4276 14.9867 14.163 15.0492 13.898C15.1345 13.5362 15.0445 13.177 14.803 12.9155C14.5499 12.6413 14.214 12.5146 13.8595 12.5596Z" fill="#080B12"/>
</g>
<defs>
<filter id="filter0_d_3114_663" x="0" y="0" width="28" height="28" filterUnits="userSpaceOnUse" color-interpolation-filters="sRGB">
<feFlood flood-opacity="0" result="BackgroundImageFix"/>
<feColorMatrix in="SourceAlpha" type="matrix" values="0 0 0 0 0 0 0 0 0 0 0 0 0 0 0 0 0 0 127 0" result="hardAlpha"/>
<feOffset dy="4"/>
<feGaussianBlur stdDeviation="2"/>
<feComposite in2="hardAlpha" operator="out"/>
<feColorMatrix type="matrix" values="0 0 0 0 0 0 0 0 0 0 0 0 0 0 0 0 0 0 0.25 0"/>
<feBlend mode="normal" in2="BackgroundImageFix" result="effect1_dropShadow_3114_663"/>
<feBlend mode="normal" in="SourceGraphic" in2="effect1_dropShadow_3114_663" result="shape"/>
</filter>
<clipPath id="clip0_3114_663">
<rect width="20" height="20" fill="white" transform="translate(4)"/>
</clipPath>
</defs>
</svg>
